HIERARCHY
ROOT root
{
	OFFSET 0.000000 0.000000 0.000000
	CHANNELS 6 Xposition Yposition Zposition Zrotation Yrotation Xrotation
	JOINT lhip
	{
		OFFSET 0.058581 -0.082280 -0.017664
		CHANNELS 3 Zrotation Yrotation Xrotation
		JOINT lknee
		{
			OFFSET 0.043451 -0.386469 0.008037
			CHANNELS 3 Zrotation Yrotation Xrotation
			JOINT lankle
			{
				OFFSET -0.014790 -0.426874 -0.037428
				CHANNELS 3 Zrotation Yrotation Xrotation
				JOINT ltoe
				{
					OFFSET 0.041054 -0.060286 0.122042
					CHANNELS 3 Zrotation Yrotation Xrotation
					End Site
					{
						OFFSET 0.000000 0.000000 0.000000
					}
				}
			}
		}
	}
	JOINT rhip
	{
		OFFSET -0.060310 -0.090513 -0.013543
		CHANNELS 3 Zrotation Yrotation Xrotation
		JOINT rknee
		{
			OFFSET -0.043257 -0.383688 -0.004843
			CHANNELS 3 Zrotation Yrotation Xrotation
			JOINT rankle
			{
				OFFSET 0.019056 -0.420046 -0.034562
				CHANNELS 3 Zrotation Yrotation Xrotation
				JOINT rtoe
				{
					OFFSET -0.034840 -0.062106 0.130323
					CHANNELS 3 Zrotation Yrotation Xrotation
					End Site
					{
						OFFSET 0.000000 0.000000 0.000000
					}
				}
			}
		}
	}
	JOINT lowerback
	{
		OFFSET 0.004439 0.124404 -0.038385
		CHANNELS 3 Zrotation Yrotation Xrotation
		JOINT upperback
		{
			OFFSET 0.004488 0.137956 0.026820
			CHANNELS 3 Zrotation Yrotation Xrotation
			JOINT chest
			{
				OFFSET -0.002265 0.056032 0.002855
				CHANNELS 3 Zrotation Yrotation Xrotation
				JOINT lowerneck
				{
					OFFSET -0.013390 0.211636 -0.033468
					CHANNELS 3 Zrotation Yrotation Xrotation
					JOINT upperneck
					{
						OFFSET 0.010113 0.088937 0.050410
						CHANNELS 3 Zrotation Yrotation Xrotation
						End Site
						{
							OFFSET 0.000000 0.000000 0.000000
						}
					}
				}
				JOINT lclavicle
				{
					OFFSET 0.071702 0.114000 -0.018898
					CHANNELS 3 Zrotation Yrotation Xrotation
					JOINT lshoulder
					{
						OFFSET 0.122921 0.045205 -0.019046
						CHANNELS 3 Zrotation Yrotation Xrotation
						JOINT lelbow
						{
							OFFSET 0.255332 -0.015649 -0.022946
							CHANNELS 3 Zrotation Yrotation Xrotation
							JOINT lwrist
							{
								OFFSET 0.265709 0.012698 -0.007375
								CHANNELS 3 Zrotation Yrotation Xrotation
								End Site
								{
									OFFSET 0.000000 0.000000 0.000000
								}
							}
						}
					}
				}
				JOINT rclavicle
				{
					OFFSET -0.082954 0.112472 -0.023707
					CHANNELS 3 Zrotation Yrotation Xrotation
					JOINT rshoulder
					{
						OFFSET -0.113228 0.046853 -0.008472
						CHANNELS 3 Zrotation Yrotation Xrotation
						JOINT relbow
						{
							OFFSET -0.260127 -0.014369 -0.031269
							CHANNELS 3 Zrotation Yrotation Xrotation
							JOINT rwrist
							{
								OFFSET -0.269108 0.006794 -0.006027
								CHANNELS 3 Zrotation Yrotation Xrotation
								End Site
								{
									OFFSET 0.000000 0.000000 0.000000
								}
							}
						}
					}
				}
			}
		}
	}
}
MOTION
Frames: 16
Frame Time: 0.033333
-2.057998 0.640649 0.994701 -44.265296 1.876383 84.873714 -5.520203 2.921093 0.513723 0.746334 1.001212 3.853797 8.184366 14.827267 -10.935993 0.000000 -0.000000 0.000000 -2.727639 -7.544402 -2.554272 0.594469 -10.427133 40.677491 3.656204 -9.328369 -11.957686 0.000000 -0.000000 0.000000 1.595673 1.323211 10.575807 0.560048 -0.768482 -3.477485 0.670873 -0.141527 2.023484 2.667941 -3.832679 -16.282873 1.209784 -7.025289 -6.484948 -23.109474 -6.348866 -1.439502 -56.039071 -8.730584 10.706076 -1.502223 -25.239021 17.996116 -7.708755 -1.514424 1.160926 21.788854 9.046223 -2.266328 56.555385 7.009482 13.983375 -7.640906 23.141500 4.300540 8.053355 0.206963 3.187692 
-2.061307 0.637406 0.995994 -39.690614 1.815515 84.822625 -4.899001 4.017706 1.374778 -0.562738 -2.685447 2.959842 7.526978 12.997287 -10.253272 0.000000 -0.000000 0.000000 -3.418002 -6.690440 -4.096391 1.741567 -9.296908 41.673236 3.643212 -7.660655 -13.112898 0.000000 -0.000000 0.000000 1.153948 0.720878 10.370995 0.766170 -0.768602 -3.028086 0.748819 -0.005579 1.484204 2.400616 -2.296577 -15.421552 1.060804 -6.151683 -6.545735 -23.516993 -7.360362 -1.249671 -55.736688 -9.184767 11.072763 -1.667327 -25.091519 18.164701 -7.752624 -1.114829 1.521088 22.026875 9.430069 -1.826780 56.973608 7.154094 13.929150 -7.828750 23.182232 4.213538 8.415461 0.045745 2.797233 
-2.067228 0.631399 0.997013 -35.668025 2.357349 83.852545 -4.928782 1.868225 3.177746 0.563935 -4.542190 3.055097 7.048133 13.241078 -10.889429 0.000000 -0.000000 0.000000 -2.376968 -5.609360 -3.423515 1.623630 -6.483674 39.667738 3.793515 -6.938664 -14.020106 0.000000 -0.000000 0.000000 1.556068 0.354172 10.070637 0.790044 -0.685650 -1.941568 0.783487 0.213517 1.516827 2.488123 -0.193134 -15.751475 0.451804 -4.603213 -5.467693 -23.197035 -8.071343 -1.655751 -56.189104 -9.783232 11.677702 -1.807502 -24.131416 18.034950 -7.138595 -1.761482 1.463746 21.796297 9.872407 -1.867920 57.014327 7.277348 14.946472 -6.923293 23.161802 4.963450 8.099920 0.218650 2.334707 
-2.070160 0.629218 0.996987 -31.774046 2.051757 83.975865 -5.304465 0.954384 3.134329 0.531412 -6.613759 3.477652 6.958494 12.572615 -10.829062 0.000000 -0.000000 0.000000 -2.449351 -3.578062 -4.499550 1.887937 -3.959778 37.399075 3.837089 -6.032740 -14.895982 0.000000 -0.000000 0.000000 1.389190 0.705379 10.201992 0.589622 -0.440657 -2.496246 0.625057 0.170023 1.593654 2.329972 2.355772 -15.728983 0.364839 -2.628921 -5.215884 -23.472611 -8.479092 -1.904362 -55.810525 -10.090095 12.307119 -1.979648 -24.462008 17.866018 -7.116704 -1.629332 1.765018 22.016559 9.869098 -1.327791 57.317880 7.602499 15.272245 -7.151251 23.617233 5.029660 8.307928 0.278246 1.846930 
-2.073485 0.627651 0.996750 -26.810307 2.100968 84.136468 -5.199265 -0.166780 2.871137 0.266695 -9.045671 4.224579 6.484844 11.605965 -10.909446 0.000000 -0.000000 0.000000 -2.110702 -2.008822 -4.783931 2.287063 -1.381711 33.884400 4.210891 -4.902817 -15.922736 0.000000 -0.000000 0.000000 1.282286 0.400155 10.426442 0.594333 -0.581575 -3.054155 0.599388 0.269216 1.422613 2.141785 5.064894 -16.006111 0.251489 -0.723109 -4.248955 -23.528962 -8.593559 -2.079860 -55.953948 -10.272478 12.973995 -2.297122 -24.678561 18.073369 -6.350428 -1.671206 1.603328 22.235423 9.598571 -0.976372 57.357745 7.664283 15.857046 -6.858800 24.123123 5.466639 7.857168 0.505445 1.253401 
-2.078549 0.625117 0.997202 -21.773489 2.204703 84.551464 -5.076507 -1.882019 2.460439 0.323415 -11.261669 4.969239 6.306001 10.661226 -11.066884 0.000000 -0.000000 0.000000 -1.622926 -0.321042 -4.755865 3.379858 2.822435 30.183038 4.525207 -2.820284 -16.758578 0.000000 -0.000000 0.000000 1.180416 0.647504 9.614912 0.676819 -0.942181 -2.686182 0.633277 0.106709 1.016794 2.083648 8.012843 -15.708321 -0.038485 1.453246 -3.901232 -23.406550 -8.996994 -1.877883 -55.881603 -10.253450 13.726078 -2.242049 -25.070299 17.945641 -6.168114 -1.595464 1.964255 22.392473 9.318020 -0.424560 57.460524 7.793709 16.101881 -7.188009 24.461452 5.365591 8.189223 0.392539 0.148750 
-2.082443 0.622642 0.998140 -16.709284 1.925420 84.687682 -4.954503 -2.109388 2.224338 -0.418260 -14.495386 5.495059 5.951908 9.271161 -10.646714 0.000000 -0.000000 0.000000 -1.519860 1.100944 -4.406820 3.817548 7.472329 27.264730 4.563517 -0.830551 -17.444895 0.000000 -0.000000 0.000000 0.679335 0.557537 8.822076 0.829042 -0.856219 -1.988891 0.625264 0.398322 0.749258 1.763366 10.606638 -15.522936 -0.117569 3.722273 -3.663372 -23.594467 -9.542253 -1.966708 -55.521603 -10.524771 14.237340 -2.525386 -24.755960 18.602389 -6.315836 -1.537354 2.007218 22.316367 9.125808 -0.254352 57.303275 7.617386 16.354962 -6.638060 24.318663 5.842987 9.797633 0.076067 -0.966429 
-2.088148 0.620870 0.999518 -11.925501 1.678040 84.168329 -5.071871 -3.619278 2.857299 -0.592585 -16.625873 5.960019 5.653393 8.565652 -10.555585 0.000000 -0.000000 0.000000 -0.942091 2.964699 -3.025524 3.531565 11.481163 25.012009 4.410308 0.622224 -18.528100 0.000000 -0.000000 0.000000 0.320781 1.255363 8.898184 0.713738 -0.719719 -1.452897 0.888551 0.147931 0.608153 1.516380 13.693574 -15.730462 -0.517160 6.011540 -3.445184 -23.394627 -9.887661 -2.182581 -55.595386 -10.664807 14.847160 -2.591547 -24.786087 18.624105 -5.222444 -1.718045 1.875192 22.475657 9.071227 0.114643 56.984278 7.749842 16.601780 -6.883285 23.928778 5.860436 8.259804 0.197493 -1.197342 
-2.093492 0.619494 1.000521 -6.438102 1.587275 84.153037 -4.908523 -5.198889 2.822856 -0.947862 -19.360283 6.281781 5.437738 7.805947 -10.202607 0.000000 -0.000000 0.000000 -0.166331 4.765224 -1.945345 3.593821 14.470952 23.719146 4.875426 1.832361 -18.222738 0.000000 -0.000000 0.000000 0.089061 1.207117 8.553752 0.823482 -0.695710 -1.175712 0.779372 0.391913 0.398741 1.470663 16.374977 -15.223315 -0.724976 8.404747 -3.179735 -23.445996 -9.933041 -2.322370 -55.150828 -10.656318 15.261788 -2.701830 -25.226027 19.021680 -5.027333 -1.651081 2.185610 22.519243 8.883260 0.559664 56.840630 7.602099 17.026258 -7.585551 23.637160 6.466197 8.548181 -0.039986 -0.941738 
-2.098529 0.619228 1.001812 -1.262822 0.695365 83.984897 -5.537305 -6.594686 3.060538 -1.298058 -21.688193 6.279293 5.194053 6.712623 -10.001759 0.000000 -0.000000 0.000000 -0.174269 6.240735 -0.839145 3.570498 16.567487 23.399534 5.318391 2.653186 -16.422277 0.000000 -0.000000 0.000000 -0.745698 1.430615 8.810557 0.566481 -0.567961 -1.380549 0.834023 0.519959 0.156724 1.221190 18.982625 -14.718646 -0.921286 11.041787 -2.902385 -23.447799 -9.522526 -2.453788 -54.681187 -10.397579 15.453381 -2.595557 -25.658791 19.041413 -5.008596 -1.677476 1.961007 22.525288 8.785342 1.232163 56.599636 7.558454 17.446377 -7.232640 23.258947 6.906925 9.201566 -0.145629 -1.553433 
-2.104083 0.619475 1.002058 4.540712 0.362114 83.941431 -5.628440 -7.840761 2.586739 -1.549013 -24.143689 6.959904 4.750975 5.192414 -9.911790 0.000000 -0.000000 0.000000 0.365676 6.038826 0.546301 2.966171 17.052395 22.818429 5.607827 1.737363 -13.441011 0.000000 -0.000000 0.000000 -1.171493 1.840032 8.502960 0.580272 -0.493640 -0.780530 0.982296 0.297478 -0.013499 1.040405 20.986904 -14.743200 -0.892739 13.678700 -2.317930 -23.540346 -9.728302 -2.282537 -53.856033 -10.794937 15.217413 -2.456399 -25.855293 18.711943 -4.930524 -2.103193 1.864491 22.138686 8.530447 1.355426 56.579063 7.391320 17.702919 -7.560886 23.059303 6.793089 9.499883 -0.092835 -1.624527 
-2.110383 0.620369 1.002661 10.284138 0.120878 84.097578 -5.228507 -9.067103 1.410191 -2.583264 -26.084711 8.219346 3.298826 3.377412 -10.802868 0.000000 -0.000000 0.000000 0.971072 4.628220 1.698041 1.765836 15.544600 21.517272 4.302856 -0.635288 -13.610010 0.000000 -0.000000 0.000000 -1.060435 2.324821 8.619189 0.140497 -0.805903 -1.259325 0.985648 0.316479 -0.052905 0.903652 23.043699 -14.187405 -0.780216 16.100847 -1.976660 -23.394663 -9.543806 -2.286532 -53.279044 -10.790728 14.716213 -2.067700 -25.841584 18.192895 -4.186168 -2.212144 1.182073 22.261750 8.405616 1.792137 56.330768 6.985247 17.577919 -7.697315 22.993745 6.911658 9.419233 -0.044976 -1.744019 
-2.116010 0.623954 1.002185 15.960794 0.019940 84.799239 -4.621224 -10.662014 -0.808581 -3.727732 -27.444033 9.834475 2.171015 1.381598 -11.021691 0.000000 -0.000000 0.000000 1.242500 2.976025 2.292856 1.352018 12.940092 19.308882 3.922900 -2.068817 -13.880318 0.000000 -0.000000 0.000000 -0.625279 2.708693 8.838791 -0.112922 -1.218657 -2.201720 0.944966 0.362432 -0.107353 0.710803 24.414136 -13.712643 -0.773123 17.683405 -1.320085 -23.176116 -9.439099 -2.357471 -53.454018 -10.800558 14.278414 -0.745661 -25.242135 16.947808 -3.828768 -2.527605 0.482341 21.623062 8.320134 2.252029 56.514227 6.698706 17.435766 -7.912403 23.241996 7.189823 9.246306 0.037683 -2.405614 
-2.123025 0.626753 1.001344 19.680749 -0.273620 85.256336 -3.853255 -11.228849 -2.087129 -4.403737 -28.210677 9.946485 0.739261 0.222586 -12.509386 0.000000 -0.000000 0.000000 1.728547 2.237799 2.865681 0.383902 11.583785 17.443073 3.237059 -3.409729 -14.355894 0.000000 -0.000000 0.000000 -0.575069 3.764135 8.955368 -0.523633 -0.581400 -2.995892 1.104207 0.563443 0.206143 0.713324 25.270658 -13.440606 -0.667327 18.568559 -0.810985 -23.146771 -8.752690 -2.902135 -53.365299 -10.906370 13.604883 0.302614 -24.699067 15.835540 -3.207952 -2.557431 0.221205 21.338496 8.329034 2.421935 56.035712 6.695689 17.435876 -7.433312 23.042140 7.463712 8.761088 0.381529 -2.747034 
-2.130219 0.629387 1.000722 23.952888 -0.238296 85.305807 -3.187785 -11.963532 -3.169177 -4.695663 -29.092059 10.643363 -1.813097 -0.235539 -15.838828 0.000000 -0.000000 0.000000 2.789234 1.802012 4.115208 -1.193012 8.946317 14.993581 5.173076 -3.473956 -15.175602 0.000000 -0.000000 0.000000 -0.281293 4.613443 9.681568 -0.190534 -1.056061 -3.702338 0.802295 0.979409 0.214165 1.606262 26.724560 -12.496645 -1.568230 18.295702 -0.691935 -22.399033 -8.204695 -2.693954 -54.009931 -10.949294 14.513553 2.499532 -24.103872 12.913411 -4.393355 -4.088660 -3.659504 19.941669 7.499386 1.405356 57.233445 6.781771 18.305324 -7.964582 22.670300 10.777993 11.195718 -0.012411 -3.757447 
-2.136604 0.630616 1.000320 27.211399 -0.506206 85.629192 -2.838967 -12.033754 -4.543971 -4.312075 -27.765144 10.965030 -1.124184 0.255439 -17.169768 0.000000 -0.000000 0.000000 3.120435 0.856609 4.691608 -1.682897 8.027062 13.180188 5.010570 -4.383968 -15.627014 0.000000 -0.000000 0.000000 -0.159377 4.817983 9.647460 -0.487669 -0.847071 -4.224923 0.796226 1.332082 0.287041 1.610140 26.449309 -11.622114 -1.492510 18.677880 -0.169020 -22.128854 -6.937618 -2.819583 -53.727044 -10.310192 13.389311 3.411061 -24.120133 11.497324 -3.860256 -3.879708 -4.902561 19.394287 7.582075 1.528660 57.531001 7.311834 18.509186 -8.131586 22.517459 11.313090 11.037712 -0.570597 -3.417978 
